<?xml version="1.0" standalone="no"?>
<!DOCTYPE svg PUBLIC "-//W3C//DTD SVG 20010904//EN"
 "http://www.w3.org/TR/2001/REC-SVG-20010904/DTD/svg10.dtd">
<svg version="1.0" xmlns="http://www.w3.org/2000/svg"
 width="887.000000pt" height="887.000000pt" viewBox="0 0 887.000000 887.000000"
 preserveAspectRatio="xMidYMid meet">
<metadata>
Created by potrace 1.14, written by Peter Selinger 2001-2017
</metadata>
<g transform="translate(0.000000,887.000000) scale(0.100000,-0.100000)"
fill="#000000" stroke="none">
<path d="M4317 8863 c-1 0 -51 -4 -112 -7 -131 -7 -234 -17 -350 -31 -74 -10
-286 -47 -340 -59 -33 -8 -63 -12 -67 -10 -5 3 -8 0 -8 -6 0 -6 -4 -8 -10 -5
-5 3 -18 2 -27 -4 -10 -5 -34 -12 -53 -15 -39 -8 -65 -14 -65 -16 0 -1 -7 -3
-15 -5 -61 -12 -305 -91 -410 -132 -204 -80 -430 -185 -558 -260 -41 -24 -76
-43 -78 -43 -3 0 -30 -16 -60 -35 -30 -19 -56 -35 -59 -35 -2 0 -21 -11 -42
-25 -21 -14 -45 -30 -53 -35 -39 -25 -289 -206 -316 -229 -17 -14 -51 -42 -75
-61 -191 -152 -406 -370 -642 -650 -41 -49 -220 -295 -230 -317 -6 -13 -14
-23 -19 -23 -4 0 -8 -5 -8 -10 0 -6 -25 -49 -56 -97 -31 -48 -60 -96 -65 -107
-5 -12 -23 -43 -39 -71 -55 -92 -164 -322 -223 -465 -45 -111 -49 -123 -53
-135 -1 -5 -17 -48 -34 -95 -25 -71 -99 -319 -115 -386 -20 -88 -58 -276 -69
-349 -23 -141 -22 -136 -41 -320 -17 -166 -22 -471 -11 -635 6 -88 16 -204 21
-240 3 -24 14 -115 20 -155 4 -32 17 -119 21 -135 1 -8 12 -62 24 -120 12 -58
24 -116 26 -129 6 -31 43 -168 53 -201 5 -14 19 -59 31 -100 13 -41 29 -89 36
-107 8 -17 14 -36 14 -42 0 -6 6 -25 14 -43 8 -18 31 -76 51 -128 122 -309
302 -639 498 -915 39 -55 74 -102 77 -105 3 -3 39 -48 80 -100 74 -95 98 -123
200 -234 348 -379 784 -711 1240 -942 104 -53 277 -134 286 -134 2 0 23 -9 47
-20 104 -47 379 -140 552 -186 6 -1 35 -9 65 -17 30 -9 58 -13 62 -11 5 3 8 0
8 -6 0 -6 3 -9 8 -7 4 3 36 -2 72 -10 36 -7 79 -16 95 -19 17 -3 41 -7 55 -10
66 -11 150 -24 195 -29 28 -3 64 -7 80 -10 48 -7 153 -15 240 -20 44 -2 80 -5
80 -5 0 -1 71 -2 158 -3 86 -1 157 2 157 6 0 4 9 3 20 -3 11 -6 20 -7 20 -3 0
4 21 8 48 9 94 1 259 17 415 40 117 17 125 18 207 35 30 7 64 13 75 15 17 3
98 22 165 39 140 37 196 53 310 91 74 25 149 52 167 60 17 8 34 14 38 14 4 0
21 6 38 14 18 8 66 29 107 46 115 49 359 172 467 236 190 111 464 302 585 406
15 13 48 41 74 63 107 89 259 237 379 367 484 524 839 1172 1022 1867 19 74
37 146 39 160 2 14 7 37 10 51 4 14 8 38 10 54 2 16 8 45 13 65 5 20 13 61 17
91 4 30 8 57 9 60 3 16 18 131 20 165 2 22 6 63 9 91 18 165 24 465 12 624 -4
52 -9 122 -11 155 -3 33 -7 76 -9 95 -3 19 -8 58 -11 85 -5 44 -27 179 -41
255 -2 14 -7 41 -10 60 -3 19 -8 38 -10 41 -2 3 -6 21 -9 40 -3 19 -11 52 -16
74 -6 22 -13 49 -16 60 -8 37 -11 50 -13 50 -1 0 -3 9 -5 20 -2 11 -20 72 -40
135 -20 63 -38 120 -39 125 -2 6 -6 19 -10 30 -5 11 -24 63 -43 115 -99 263
-263 588 -421 829 -60 91 -199 289 -217 307 -5 6 -21 25 -35 43 -146 188 -396
449 -580 603 -25 21 -58 49 -75 64 -125 107 -416 309 -590 409 -147 85 -413
216 -550 270 -66 26 -131 52 -145 58 -14 6 -29 11 -35 13 -5 1 -57 18 -115 37
-103 35 -386 111 -445 121 -16 2 -64 11 -105 20 -84 17 -112 22 -220 36 -154
21 -157 21 -375 36 -82 6 -344 11 -348 7z m423 -97 c25 -2 77 -7 115 -11 112
-10 210 -21 210 -25 0 -1 14 -3 30 -5 40 -5 95 -13 125 -19 13 -3 42 -8 64
-12 22 -3 43 -7 47 -9 3 -2 21 -7 40 -10 19 -3 86 -19 149 -36 63 -17 126 -33
140 -36 13 -2 30 -9 37 -15 7 -6 13 -8 13 -5 0 10 306 -98 405 -143 22 -10 58
-26 80 -35 95 -41 251 -119 361 -181 116 -65 439 -275 479 -311 11 -10 38 -31
60 -47 194 -143 462 -400 661 -636 139 -164 354 -462 354 -490 0 -5 4 -10 8
-10 4 0 25 -30 45 -67 21 -38 47 -84 59 -103 53 -88 192 -381 251 -530 115
-288 232 -724 252 -935 2 -16 6 -43 9 -60 6 -29 12 -75 21 -160 19 -162 25
-551 12 -725 -12 -164 -16 -204 -21 -235 -3 -16 -8 -52 -11 -80 -7 -68 -21
-147 -51 -295 -106 -516 -333 -1061 -627 -1500 -101 -150 -266 -369 -327 -431
-8 -9 -38 -43 -66 -75 -150 -172 -376 -381 -599 -553 -22 -17 -49 -38 -60 -47
-53 -42 -343 -228 -445 -286 -123 -69 -359 -186 -410 -203 -15 -5 -68 -27 -85
-35 -155 -73 -628 -213 -797 -235 -15 -2 -31 -6 -35 -8 -4 -3 -33 -8 -63 -12
-30 -3 -62 -8 -70 -10 -20 -6 -86 -14 -235 -31 -178 -19 -546 -24 -735 -10
-58 5 -123 10 -145 11 -22 2 -42 4 -45 5 -3 1 -8 2 -11 2 -4 -1 -33 3 -65 8
-33 5 -77 12 -99 15 -22 2 -51 7 -65 10 -14 3 -52 10 -85 16 -33 6 -70 13 -82
15 -164 31 -560 151 -723 221 -8 3 -17 7 -20 8 -3 0 -27 11 -54 23 -27 12 -50
22 -52 22 -14 0 -283 137 -399 203 -118 68 -368 228 -385 247 -3 3 -39 30 -80
60 -41 29 -79 58 -85 64 -5 6 -32 29 -60 51 -56 44 -49 39 -141 120 -126 112
-320 312 -404 415 -19 24 -40 48 -45 54 -6 6 -39 47 -73 91 -34 44 -66 85 -70
90 -47 57 -224 331 -295 454 -33 59 -187 369 -187 378 0 4 -7 22 -16 38 -8 17
-29 66 -46 110 -16 44 -34 89 -39 100 -49 109 -174 564 -193 706 -3 19 -10 59
-16 89 -6 30 -13 75 -15 100 -3 25 -7 61 -10 80 -6 38 -11 91 -22 240 -13 184
-7 577 12 720 3 19 7 62 10 95 3 33 8 67 10 75 2 8 7 35 11 60 16 113 23 152
39 225 8 33 16 71 18 85 3 14 10 45 17 70 7 25 14 53 16 64 2 10 11 44 20 75
10 31 18 61 20 66 4 22 67 211 72 220 4 6 7 15 8 20 7 43 120 299 210 479 135
269 350 597 525 800 10 12 27 32 39 46 127 150 311 335 460 463 58 50 111 97
118 104 7 7 16 13 20 13 4 0 21 14 39 30 18 17 36 30 42 30 5 0 11 3 13 8 8
18 289 212 308 212 5 0 10 4 10 8 0 5 10 14 23 20 12 6 45 25 72 42 28 16 57
33 65 37 8 4 36 19 63 35 26 15 47 24 47 20 0 -4 4 -2 8 4 6 10 96 55 245 123
116 53 303 126 397 155 30 10 61 19 68 22 7 2 14 4 17 5 2 0 26 8 52 16 42 13
250 68 293 78 47 10 232 45 270 50 25 3 56 8 70 10 111 16 159 21 310 30 63 4
116 8 117 9 5 4 437 -3 483 -8z"/>
<path d="M6686 7368 c3 -10 10 -18 14 -18 4 0 6 -11 5 -24 -2 -14 3 -27 11
-30 7 -3 11 -12 8 -19 -3 -8 1 -21 8 -28 13 -15 20 -34 21 -56 0 -7 5 -13 11
-13 6 0 4 -5 -4 -10 -11 -7 -11 -10 -2 -10 9 0 12 -10 8 -30 -2 -16 0 -30 6
-30 5 0 8 -6 5 -12 -2 -7 0 -21 5 -32 7 -14 7 -16 -2 -11 -9 6 -9 3 -1 -13 14
-27 14 -35 -1 -26 -7 5 -8 3 -2 -7 13 -21 14 -39 2 -39 -7 0 -7 -5 -1 -12 10
-14 11 -56 2 -73 -2 -5 -5 -29 -4 -52 0 -24 -4 -43 -8 -43 -5 0 -6 -4 -2 -9 3
-5 1 -12 -5 -16 -5 -3 -10 -19 -10 -36 0 -16 -4 -29 -10 -29 -5 0 -10 -9 -10
-20 0 -11 -4 -20 -10 -20 -5 0 -7 -6 -4 -14 3 -7 -2 -20 -10 -29 -9 -9 -16
-23 -16 -31 0 -9 -5 -16 -11 -16 -5 0 -8 -4 -5 -9 3 -5 -1 -12 -10 -15 -8 -3
-13 -10 -10 -14 3 -5 -3 -15 -12 -24 -29 -26 -51 -56 -45 -62 4 -3 -2 -6 -12
-6 -10 0 -16 -3 -12 -6 3 -4 -12 -22 -34 -40 -23 -19 -37 -34 -32 -34 4 0 -7
-10 -24 -21 -18 -12 -33 -25 -33 -30 0 -5 -5 -9 -11 -9 -6 0 -24 -13 -41 -30
-31 -32 -43 -38 -33 -17 4 6 -5 0 -19 -15 -14 -16 -29 -28 -34 -28 -5 0 -17
-9 -27 -20 -10 -11 -24 -20 -30 -20 -7 0 -18 -7 -25 -15 -7 -8 -20 -15 -29
-15 -10 0 -27 -11 -39 -25 -13 -14 -26 -23 -31 -20 -5 2 -12 -2 -15 -11 -3 -8
-10 -12 -16 -9 -5 3 -10 1 -10 -5 0 -6 -4 -9 -9 -5 -6 3 -14 -3 -20 -12 -5
-10 -12 -17 -16 -15 -8 4 -65 -31 -65 -41 0 -4 -4 -6 -8 -3 -5 3 -19 -4 -30
-15 -12 -11 -22 -17 -22 -14 0 4 -13 -3 -30 -15 -16 -12 -30 -19 -30 -15 0 3
-10 -3 -22 -14 -11 -11 -26 -18 -31 -14 -6 3 -7 1 -4 -4 7 -10 -20 -28 -35
-25 -5 1 -8 -2 -8 -8 0 -5 -7 -10 -15 -10 -8 0 -15 -5 -15 -11 0 -5 -4 -8 -9
-4 -6 3 -15 -4 -21 -15 -6 -11 -17 -20 -25 -20 -8 0 -15 -4 -15 -10 0 -5 -7
-10 -15 -10 -9 0 -18 -7 -21 -15 -4 -8 -10 -13 -14 -10 -5 3 -21 -8 -37 -25
-15 -16 -36 -30 -45 -30 -10 0 -18 -6 -18 -14 0 -8 -9 -17 -20 -21 -11 -3 -28
-17 -38 -30 -11 -13 -22 -22 -25 -19 -3 3 -10 -4 -17 -15 -6 -12 -18 -21 -27
-21 -9 0 -14 -3 -11 -6 3 -3 -26 -39 -65 -79 -86 -89 -117 -125 -117 -137 0
-5 -4 -7 -9 -4 -5 3 -12 -6 -15 -19 -4 -14 -10 -23 -15 -20 -5 2 -12 -6 -15
-20 -4 -14 -11 -25 -17 -25 -6 0 -7 -4 -4 -10 3 -5 1 -10 -5 -10 -6 0 -8 -4
-5 -10 3 -5 -1 -10 -9 -10 -9 0 -15 -3 -14 -7 4 -16 -14 -53 -23 -48 -5 4 -9
-2 -9 -12 0 -10 -9 -33 -20 -51 -11 -18 -20 -39 -20 -47 0 -8 -5 -15 -11 -15
-5 0 -7 -4 -4 -10 3 -5 1 -10 -6 -10 -7 0 -10 -3 -6 -6 3 -4 -1 -21 -10 -38
-9 -17 -18 -35 -19 -41 -2 -5 -5 -21 -8 -34 -3 -14 -11 -28 -17 -32 -8 -5 -8
-8 0 -14 9 -5 9 -11 -1 -22 -12 -15 -16 -26 -23 -71 -2 -13 -9 -30 -17 -39 -9
-12 -9 -15 0 -9 17 10 15 -5 -5 -33 -12 -18 -13 -22 -2 -16 11 7 12 6 3 -6 -6
-8 -10 -22 -9 -31 2 -10 -2 -18 -8 -18 -7 0 -5 -5 3 -10 8 -5 10 -10 4 -10 -6
0 -10 -19 -9 -44 0 -36 -2 -43 -12 -34 -10 8 -12 7 -7 -5 12 -32 9 -82 -6 -95
-8 -8 -9 -11 -2 -7 6 3 12 0 12 -7 0 -8 -6 -20 -12 -27 -9 -9 -9 -12 -1 -7 13
7 13 -40 0 -62 -5 -7 -3 -12 5 -12 10 0 10 -2 0 -9 -8 -4 -14 -12 -14 -16 0
-4 6 -12 14 -16 10 -7 10 -9 -2 -9 -13 0 -13 -1 0 -11 12 -8 12 -12 2 -16 -10
-4 -10 -8 0 -21 10 -12 10 -14 1 -8 -16 9 -17 -6 -1 -22 9 -9 9 -12 -1 -12
-11 0 -11 -3 -1 -15 6 -8 8 -20 4 -27 -12 -19 -14 -39 -3 -32 5 3 9 -2 9 -11
0 -10 -5 -13 -12 -9 -8 5 -8 1 1 -10 13 -15 13 -19 0 -27 -10 -6 -10 -9 -1 -9
8 0 12 -17 12 -51 0 -28 5 -60 12 -72 10 -19 9 -20 -4 -10 -8 7 -19 9 -23 5
-5 -4 -5 -1 -1 6 4 7 1 15 -8 18 -9 3 -16 11 -16 18 0 6 -9 17 -20 24 -11 7
-20 17 -20 22 0 6 -17 26 -37 45 -20 19 -34 35 -30 35 4 0 -5 13 -20 28 -54
54 -93 102 -93 112 0 6 -4 8 -10 5 -5 -3 -10 -2 -10 3 0 5 -10 20 -22 34 -13
14 -36 42 -53 62 -16 21 -42 50 -57 66 -16 16 -28 31 -28 34 0 3 -14 19 -31
36 -18 16 -29 30 -26 30 4 0 -8 15 -26 33 -18 18 -48 53 -69 77 -20 25 -46 56
-58 70 -12 14 -40 47 -63 74 -23 27 -52 60 -64 72 -13 13 -23 27 -23 32 0 4
-13 19 -30 32 -16 14 -29 29 -30 33 0 5 -11 20 -25 35 -46 50 -100 112 -125
144 -14 17 -40 46 -58 64 -18 19 -30 34 -26 34 3 0 -9 16 -28 35 -70 75 -78
84 -78 89 0 3 -10 16 -22 29 -13 12 -41 44 -63 70 -22 27 -56 65 -75 85 -19
20 -34 40 -32 45 1 4 -3 7 -8 7 -6 0 -16 11 -22 25 -6 14 -17 25 -23 25 -6 0
-17 11 -23 25 -6 14 -16 25 -22 25 -5 0 -10 6 -10 13 0 7 -9 19 -19 27 -11 7
-18 17 -15 22 3 4 -3 8 -12 8 -10 0 -15 3 -11 6 3 3 -10 21 -29 40 -19 19 -34
37 -34 39 0 3 -10 16 -22 30 -16 19 -24 22 -30 13 -6 -10 -8 -10 -8 1 0 11 -4
9 -15 -5 -11 -13 -13 -14 -9 -3 4 13 -1 16 -23 15 -15 0 -31 -5 -35 -11 -5 -7
-8 -7 -8 0 0 12 -59 14 -77 2 -6 -4 -13 -1 -16 5 -3 10 -7 10 -19 0 -13 -10
-17 -10 -20 0 -4 10 -8 10 -21 -1 -10 -8 -17 -9 -17 -3 0 12 -39 10 -59 -3
-10 -5 -12 -4 -7 3 10 16 -27 10 -48 -7 -14 -12 -16 -12 -10 3 8 21 -5 21 -22
-1 -11 -14 -13 -15 -9 -2 4 10 0 16 -10 16 -8 0 -15 -5 -15 -11 0 -7 -3 -8 -8
-1 -11 16 -65 13 -80 -5 -8 -8 -11 -10 -8 -3 9 17 -15 28 -25 12 -5 -8 -9 -9
-9 -4 0 12 -59 14 -77 2 -6 -4 -13 -1 -16 5 -3 10 -7 10 -19 0 -13 -10 -17
-10 -20 0 -4 10 -8 10 -21 -1 -10 -8 -17 -9 -17 -3 0 11 -38 10 -57 -1 -5 -3
-13 -3 -17 1 -13 13 -61 8 -74 -8 -11 -13 -11 -13 -7 1 4 10 0 16 -10 16 -8 0
-15 -4 -15 -9 0 -5 -6 -6 -13 -1 -20 13 -61 9 -75 -7 -10 -13 -11 -13 -6 3 7
19 -15 21 -28 2 -5 -7 -8 -6 -8 0 0 12 -59 14 -77 2 -8 -5 -13 -4 -13 2 0 6
-5 11 -11 11 -5 0 -7 -5 -3 -11 4 -7 -1 -7 -15 1 -16 8 -26 8 -36 0 -10 -8
-14 -8 -17 2 -4 10 -8 10 -21 -1 -11 -9 -17 -10 -17 -2 0 16 -17 13 -24 -5 -4
-10 -2 -13 7 -8 6 4 3 -2 -7 -14 -19 -22 -19 -22 1 -22 11 0 23 -3 26 -7 4 -3
22 -8 39 -10 18 -2 35 -8 36 -13 2 -6 12 -10 23 -10 10 0 19 -5 19 -11 0 -5 4
-7 10 -4 5 3 10 1 10 -5 0 -6 4 -9 9 -6 5 4 11 2 13 -3 1 -5 10 -11 18 -13 8
-2 21 -11 28 -20 7 -10 20 -18 28 -18 8 0 12 -4 9 -10 -3 -5 1 -10 9 -10 9 0
16 -5 16 -10 0 -6 11 -16 25 -22 14 -6 25 -18 25 -25 0 -8 5 -11 10 -8 6 3 10
2 10 -4 0 -5 15 -24 33 -43 52 -55 139 -158 133 -158 -3 0 8 -13 24 -29 17
-15 30 -32 30 -37 0 -5 8 -17 18 -25 45 -41 57 -71 58 -144 0 -40 4 -80 7 -89
4 -10 3 -15 -3 -11 -14 9 -12 -8 2 -24 11 -11 11 -13 0 -7 -6 4 -12 2 -12 -3
0 -6 6 -11 13 -11 8 0 7 -4 -3 -10 -13 -9 -13 -11 0 -20 14 -9 7 -15 -14 -11
-5 1 -5 -4 1 -11 15 -19 15 -170 0 -161 -9 5 -9 3 -1 -8 7 -8 12 -51 11 -105
0 -50 3 -96 8 -104 5 -9 4 -11 -3 -6 -16 10 -15 -7 0 -23 11 -11 11 -13 0 -7
-6 4 -12 2 -12 -3 0 -6 6 -11 13 -11 8 0 7 -4 -3 -10 -13 -9 -13 -11 0 -20 14
-9 7 -15 -14 -11 -5 1 -5 -4 1 -11 15 -19 15 -170 0 -161 -9 5 -9 3 -1 -8 7
-8 12 -51 11 -105 0 -50 3 -96 8 -104 5 -9 4 -11 -3 -6 -16 10 -15 -7 1 -23
10 -11 10 -13 0 -7 -7 4 -13 2 -13 -3 0 -6 6 -11 13 -11 8 0 7 -4 -3 -10 -13
-9 -13 -11 0 -20 14 -9 7 -15 -14 -11 -5 1 -4 -4 2 -12 7 -8 11 -33 9 -56 -2
-24 1 -41 7 -41 6 0 2 -7 -8 -15 -11 -8 -14 -15 -8 -15 8 0 11 -18 9 -55 -2
-34 1 -55 7 -55 7 0 8 -3 1 -8 -13 -9 -13 -145 0 -154 7 -5 7 -8 0 -8 -6 0
-10 -32 -10 -75 0 -43 4 -75 10 -75 7 0 7 -3 0 -8 -13 -9 -13 -145 0 -154 7
-5 7 -8 0 -8 -6 0 -10 -32 -10 -75 0 -43 4 -75 10 -75 7 0 7 -3 0 -8 -13 -9
-13 -145 0 -154 7 -5 7 -8 0 -8 -6 0 -10 -32 -10 -75 0 -43 4 -75 10 -75 7 0
7 -3 0 -8 -13 -9 -13 -145 0 -154 7 -5 7 -8 0 -8 -6 0 -10 -32 -10 -75 0 -43
4 -75 10 -75 7 0 7 -3 0 -8 -13 -9 -13 -145 0 -154 6 -5 6 -8 -1 -8 -6 0 -9
-18 -8 -47 2 -25 0 -51 -3 -57 -4 -6 -6 -28 -4 -49 1 -22 -1 -37 -6 -34 -4 3
-9 -5 -9 -16 -1 -12 -10 -40 -19 -62 -10 -22 -19 -44 -19 -48 -1 -4 -8 -12
-16 -17 -8 -5 -11 -10 -7 -10 4 0 3 -6 -3 -12 -43 -52 -60 -74 -60 -80 0 -5
-6 -8 -13 -8 -8 0 -20 -11 -27 -25 -7 -14 -16 -25 -20 -25 -3 0 -22 -13 -40
-30 -18 -16 -39 -30 -46 -30 -7 0 -17 -6 -21 -13 -13 -22 -82 -59 -94 -51 -7
4 -9 3 -6 -3 4 -7 -12 -19 -37 -29 -24 -10 -42 -22 -40 -26 3 -4 -2 -5 -10 -2
-9 3 -16 2 -16 -3 0 -9 -6 -11 -49 -15 -11 -1 -18 -5 -15 -9 3 -6 -53 -23 -68
-20 -5 0 -8 -3 -8 -8 0 -5 -8 -8 -17 -6 -10 1 -23 -1 -29 -6 -6 -5 -23 -10
-38 -11 -14 -1 -26 -7 -26 -13 0 -5 -5 -3 -10 5 -6 10 -10 11 -10 2 0 -6 -6
-11 -12 -10 -7 2 -14 -6 -16 -18 -3 -18 2 -20 45 -19 26 1 56 -3 67 -8 12 -6
16 -5 12 1 -3 5 5 10 19 10 14 0 22 -5 18 -11 -4 -6 -1 -7 7 -2 19 12 349 12
354 0 3 -6 5 -6 5 1 1 11 52 10 72 -1 7 -5 10 -4 6 2 -4 6 4 11 18 11 14 0 22
-4 20 -9 -3 -4 7 -4 23 0 17 5 36 5 47 -1 12 -7 16 -7 12 -1 -4 6 4 11 18 11
14 0 22 -4 20 -9 -3 -4 7 -4 23 0 17 5 36 5 47 -1 12 -7 16 -7 12 -1 -4 6 4
11 18 11 14 0 22 -4 20 -9 -3 -4 7 -4 23 0 17 5 36 5 47 -1 12 -7 16 -7 12 -1
-4 6 4 11 18 11 14 0 22 -4 20 -9 -3 -4 7 -4 23 0 17 5 36 5 47 -1 12 -7 16
-7 12 -1 -4 6 4 11 18 11 14 0 22 -5 18 -11 -4 -6 -1 -7 7 -2 15 10 480 13
474 3 -2 -4 8 -3 24 1 17 5 36 5 47 -1 12 -7 16 -7 12 -1 -4 6 4 11 18 11 14
0 22 -4 20 -8 -3 -5 3 -6 13 -3 23 6 24 34 3 50 -12 9 -19 9 -30 0 -12 -9 -13
-9 -7 1 5 8 -1 12 -21 13 -15 1 -31 1 -35 0 -5 0 -8 4 -8 10 0 6 -9 9 -20 6
-11 -3 -20 -1 -20 4 0 4 -7 5 -17 2 -10 -4 -14 -2 -10 4 4 6 -8 13 -28 16 -19
3 -77 26 -129 51 -52 25 -100 46 -106 46 -6 0 -9 4 -6 8 2 4 -8 13 -23 20 -15
7 -37 21 -48 31 -12 11 -24 17 -27 14 -3 -4 -6 1 -6 10 0 10 -3 16 -8 15 -8
-3 -20 6 -76 60 -19 17 -32 32 -29 32 3 0 -3 8 -13 18 -54 49 -113 175 -121
259 -13 138 -13 144 -1 137 7 -5 8 -3 2 7 -14 23 -17 62 -3 53 8 -5 9 -3 3 7
-14 23 -15 101 -1 92 7 -4 7 0 -2 10 -7 9 -10 17 -7 17 4 0 2 10 -5 21 -8 17
-8 20 1 14 9 -5 10 -1 5 15 -6 17 -4 21 6 14 11 -6 12 -5 3 7 -15 20 -17 72
-2 63 7 -5 8 -3 2 7 -14 23 -17 62 -3 53 8 -5 9 -3 3 7 -14 23 -15 101 -1 92
7 -4 7 0 -2 10 -7 9 -10 17 -7 17 4 0 2 10 -5 21 -8 17 -8 20 1 14 9 -5 10 -1
5 15 -6 17 -4 21 6 14 11 -6 12 -5 3 7 -15 20 -17 72 -2 63 7 -5 8 -3 2 7 -14
23 -17 62 -3 53 8 -5 9 -3 3 7 -14 23 -15 101 -1 92 7 -4 7 0 -2 10 -7 9 -10
17 -7 17 4 0 2 10 -5 21 -8 17 -8 20 1 14 9 -5 10 -1 5 15 -6 17 -4 21 6 14
11 -6 12 -5 3 7 -15 20 -17 72 -2 63 7 -5 8 -3 2 7 -14 23 -17 62 -3 53 8 -5
9 -3 3 7 -14 23 -15 101 -1 92 7 -4 7 0 -2 10 -7 9 -10 17 -7 17 4 0 2 10 -5
21 -8 17 -8 20 1 14 9 -5 10 -1 5 15 -6 17 -4 21 6 14 11 -6 12 -5 3 7 -15 20
-17 72 -2 63 7 -5 8 -3 2 7 -14 23 -17 62 -3 53 8 -5 9 -3 3 7 -14 23 -15 101
-1 92 9 -5 9 -3 1 8 -6 8 -10 22 -9 31 2 10 -1 20 -6 23 -4 3 -5 16 0 28 4 12
6 28 3 36 -3 9 0 11 8 6 10 -6 11 -4 4 6 -13 21 -14 192 0 201 8 6 8 8 0 8 -6
0 -11 14 -12 30 0 21 3 28 11 24 8 -5 8 -3 0 7 -15 16 -17 33 -3 24 6 -3 7 1
4 9 -3 9 -11 13 -17 9 -6 -4 -7 -1 -2 6 11 18 14 81 4 87 -5 2 -5 15 0 27 4
12 6 28 3 36 -3 9 0 11 8 6 10 -6 11 -4 4 6 -13 21 -14 192 0 201 8 6 8 8 0 8
-6 0 -11 14 -12 30 0 21 3 28 11 24 8 -5 8 -3 -1 7 -14 16 -16 33 -2 24 6 -3
7 1 4 9 -3 9 -11 13 -17 9 -6 -4 -7 -1 -2 6 11 18 14 81 4 87 -5 2 -5 15 0 27
4 12 6 28 3 36 -3 9 0 11 8 6 10 -6 11 -4 4 6 -13 21 -14 82 0 98 9 12 8 13
-2 7 -11 -6 -13 -1 -11 25 2 19 8 40 13 48 9 12 7 13 -5 9 -13 -5 -16 -2 -12
13 3 10 11 19 18 19 12 0 30 -27 27 -42 -1 -4 7 -10 18 -13 11 -4 20 -11 20
-16 0 -6 10 -20 23 -33 12 -13 36 -41 54 -62 17 -22 41 -50 53 -64 12 -14 36
-42 53 -64 18 -21 46 -54 62 -73 99 -115 95 -110 95 -125 0 -9 3 -9 10 2 8 13
10 13 10 -2 0 -9 8 -22 18 -27 9 -6 13 -11 8 -11 -5 0 1 -9 14 -20 13 -11 20
-20 17 -20 -4 0 8 -15 26 -33 18 -18 50 -55 72 -82 22 -27 46 -54 53 -61 6 -7
12 -15 12 -17 0 -3 15 -21 33 -40 17 -19 48 -54 67 -78 19 -23 45 -52 58 -65
13 -13 21 -24 18 -24 -3 0 5 -11 17 -23 42 -45 87 -98 87 -102 0 -3 15 -20 33
-39 48 -51 67 -75 67 -87 0 -5 5 -7 10 -4 6 3 10 1 10 -5 0 -6 9 -21 20 -33
112 -125 131 -147 124 -147 -3 0 13 -18 35 -40 23 -23 41 -44 41 -48 1 -4 19
-25 40 -47 22 -22 40 -46 40 -53 0 -7 4 -11 8 -8 5 3 15 -6 22 -19 7 -14 17
-25 22 -25 4 0 8 -7 8 -15 0 -8 6 -15 14 -15 11 0 26 -21 27 -37 0 -1 22 -24
47 -52 65 -69 72 -79 72 -91 0 -6 5 -8 10 -5 6 3 10 2 10 -3 0 -5 10 -20 22
-34 13 -14 39 -45 58 -68 19 -23 44 -51 54 -61 11 -11 17 -19 14 -19 -3 0 19
-26 48 -57 29 -32 50 -62 47 -67 -3 -5 -1 -6 5 -2 7 4 12 3 12 -2 0 -4 8 -17
18 -28 10 -10 40 -46 67 -79 80 -96 99 -117 118 -134 9 -8 17 -19 17 -23 0 -4
18 -25 39 -47 21 -22 37 -42 34 -45 -3 -3 2 -8 11 -12 9 -3 16 -13 16 -21 0
-8 5 -11 10 -8 6 3 10 1 10 -5 0 -6 10 -22 23 -35 12 -13 38 -42 57 -65 19
-23 44 -50 54 -61 11 -10 17 -19 14 -19 -6 0 34 -46 102 -118 14 -15 25 -30
25 -34 0 -3 13 -18 28 -32 15 -14 25 -26 22 -26 -3 0 4 -10 17 -23 13 -13 39
-42 58 -66 33 -40 46 -55 103 -121 12 -14 38 -45 57 -69 19 -24 42 -52 51 -61
8 -9 18 -24 22 -33 3 -9 11 -17 17 -17 5 0 10 -6 10 -12 0 -7 14 -31 32 -53
30 -39 30 -39 23 -10 -4 17 -7 40 -6 53 0 13 -2 21 -7 19 -4 -3 -7 16 -6 41 0
26 -4 53 -9 59 -6 9 -5 13 4 13 11 0 11 2 1 8 -7 5 -13 29 -14 55 0 26 -5 50
-9 53 -5 3 -6 11 -2 17 10 17 11 47 1 53 -5 3 -4 12 3 20 9 11 9 14 0 14 -8 0
-9 5 -2 17 5 10 5 26 0 41 -5 13 -6 28 -3 33 3 6 8 54 10 107 4 106 6 121 17
139 4 6 3 14 -3 18 -6 4 -8 11 -4 16 3 6 8 25 10 42 2 18 7 46 10 62 3 17 8
46 11 65 2 19 14 69 25 110 11 41 22 82 23 90 2 8 4 16 5 18 2 1 4 7 5 12 1 6
4 12 5 15 4 8 7 17 15 52 4 18 11 30 16 27 5 -3 6 1 3 9 -4 12 4 36 51 142 7
16 18 45 25 63 7 17 16 32 21 32 5 0 9 4 9 10 0 18 101 183 120 197 11 8 20
19 20 25 0 6 11 26 25 44 14 19 25 36 25 39 0 3 8 14 18 24 26 29 37 43 58 76
10 17 23 35 29 42 5 6 21 26 35 44 33 42 149 159 284 284 189 176 255 246 340
360 25 33 52 68 60 78 9 9 13 17 9 17 -3 0 3 10 14 23 11 12 23 29 27 37 3 8
18 35 32 60 14 25 27 53 29 64 3 10 11 23 20 30 8 6 16 23 17 39 1 15 6 27 10
27 4 0 8 8 8 18 0 10 6 24 13 31 10 11 9 12 -2 6 -10 -6 -12 -4 -5 6 9 15 34
79 34 91 0 3 -8 5 -17 4 -10 -2 -18 -7 -18 -12 0 -14 -39 -51 -49 -46 -5 3 -6
-2 -3 -12 4 -9 3 -15 -1 -12 -13 8 -53 -24 -46 -36 4 -7 2 -8 -4 -4 -6 4 -20
-2 -32 -14 -11 -11 -20 -15 -20 -9 0 5 -5 7 -10 4 -6 -4 -8 -11 -5 -16 4 -5 1
-9 -4 -9 -21 0 -10 21 29 57 22 21 40 43 40 51 0 7 4 11 9 8 5 -4 12 7 16 23
3 16 13 32 21 35 8 3 14 16 14 29 0 13 9 33 19 44 11 12 17 24 14 27 -4 3 -1
6 6 6 7 0 9 5 6 10 -4 6 -1 17 5 25 7 8 10 21 7 29 -3 8 -1 16 4 18 5 2 11 13
12 26 0 12 4 22 7 22 4 0 7 6 8 13 5 41 11 69 19 80 5 7 8 22 7 35 0 12 2 22
6 22 4 0 5 11 2 25 -2 14 0 31 6 38 7 8 7 18 2 27 -6 9 -4 20 4 30 14 16 18
41 15 93 0 6 2 23 6 37 3 14 6 40 6 58 1 17 6 32 13 32 7 0 8 3 1 8 -9 6 -13
46 -5 55 6 7 5 59 -2 70 -4 6 -2 17 4 24 7 9 7 17 -2 28 -11 13 -10 14 5 9 14
-6 16 -4 10 6 -11 18 -14 70 -4 70 10 0 6 34 -6 42 -6 5 -5 8 4 8 11 0 11 3 1
15 -10 12 -9 15 6 15 14 0 16 3 6 9 -7 4 -12 12 -11 17 1 5 1 21 0 36 -1 21
-5 25 -21 21 -15 -4 -17 -9 -10 -23 7 -13 7 -21 -1 -25 -6 -4 -8 -13 -5 -20 3
-8 1 -15 -5 -17 -5 -2 -10 -27 -12 -55 -1 -29 -6 -53 -10 -53 -5 0 -5 -4 -2
-10 3 -5 2 -10 -2 -10 -5 0 -10 -8 -11 -17 -1 -10 -4 -27 -6 -38 -2 -11 -5
-24 -5 -28 -1 -5 -5 -6 -10 -3 -4 3 -8 -2 -8 -12 0 -46 -4 -63 -13 -57 -6 4
-10 -5 -10 -19 0 -14 -5 -26 -11 -26 -5 0 -8 -4 -4 -9 3 -5 1 -12 -5 -16 -6
-4 -8 -11 -5 -16 4 -5 1 -9 -5 -9 -6 0 -16 -13 -21 -30 -6 -16 -15 -27 -20
-24 -5 3 -9 -1 -9 -9 0 -8 -7 -20 -15 -27 -8 -7 -12 -17 -8 -23 3 -5 1 -7 -4
-4 -6 4 -19 -4 -29 -18 -10 -13 -21 -22 -26 -19 -4 3 -8 1 -8 -5 0 -6 -9 -15
-19 -21 -15 -8 -19 -7 -17 7 2 8 10 21 19 28 9 7 14 15 10 18 -3 4 -1 7 5 7 7
0 19 18 28 40 9 22 21 40 27 40 6 0 7 3 4 7 -4 3 0 17 9 31 11 17 12 22 3 16
-11 -6 -12 -5 -2 8 7 8 10 18 6 21 -3 4 -2 7 4 7 6 0 14 7 17 16 4 10 2 13 -6
8 -7 -4 -3 6 9 22 11 16 19 39 18 52 -1 12 1 22 5 22 4 0 6 13 5 30 -1 16 2
27 7 24 7 -5 13 33 9 64 -1 6 2 12 6 12 4 0 9 19 11 42 1 23 8 45 14 49 7 4 6
8 -3 11 -11 4 -11 10 -3 24 6 11 10 43 10 71 -1 29 2 53 6 53 3 0 5 8 3 18 -1
9 1 27 6 39 5 14 4 25 -2 29 -8 4 -7 9 2 15 11 7 11 9 1 9 -9 0 -10 5 -3 18 6
11 6 24 -1 36 -8 14 -7 17 1 12 6 -4 11 -3 11 3 0 5 -5 13 -10 16 -7 4 -7 13
0 26 8 13 7 19 0 19 -7 0 -8 6 -1 17 5 10 5 26 0 41 -5 13 -6 21 -1 19 4 -3 7
10 7 28 0 18 -3 31 -6 29 -3 -2 -6 10 -7 26 0 17 5 30 11 30 8 0 7 3 -2 9 -8
5 -15 28 -16 52 -1 24 -3 45 -5 47 -7 6 -4 28 5 34 6 5 5 8 -4 8 -11 0 -11 3
0 17 10 11 10 14 2 9 -9 -5 -13 1 -13 18 0 14 1 28 3 29 1 2 -4 11 -11 20 -10
11 -10 17 -1 22 8 6 8 9 -1 15 -7 4 -12 19 -12 34 0 14 -4 26 -7 26 -4 0 -7
10 -8 23 -1 27 -10 64 -18 77 -3 6 0 10 7 10 9 0 10 3 2 8 -13 8 -33 63 -36
100 -1 6 -5 12 -10 12 -4 0 -8 8 -8 18 0 10 -5 23 -12 30 -7 7 -8 12 -3 12 4
0 0 10 -11 22 -13 14 -14 19 -4 14 8 -4 7 -1 -3 7 -10 8 -17 19 -16 23 4 16
-20 64 -31 64 -6 0 -9 4 -6 9 7 11 -33 57 -46 53 -5 -1 -7 2 -3 7 3 6 -8 25
-25 43 -16 18 -27 25 -24 16z"/>
</g>
</svg>
